# xmcd
# 
# Track frame offsets:
#     150
#     41113
#     74843
#     96336
#     132245
#     152161
#     185573
#     211003
#     225734
# 
# Disc length: 3173
# 
# Revision: 1
# Processed by: cddbd v1.5.2PL0 Copyright (c) Steve Scherf et al.
# Submitted via: BonkEnc v1.0.8
# 
DISCID=830c6309
DTITLE=Ted Nash - Sidewalk Meeting
DYEAR=2000
DGENRE=Contemporary Jazz
TTITLE0=Premiere Rhapsodie
TTITLE1=Jump Line
TTITLE2=Reverie
TTITLE3=Tango Sierra
TTITLE4=Sidewalk Meeting
TTITLE5=Amad
TTITLE6=Bemsha Swing
TTITLE7=Summer Night In The Deep South
TTITLE8=Sidewalk Meeting, Reprise
EXTD=YEAR: 2001
EXTT0=
EXTT1=
EXTT2=
EXTT3=
EXTT4=
EXTT5=
EXTT6=
EXTT7=
EXTT8=
PLAYORDER=
